# xmcd CD database file
#
# Track frame offsets:
#	150
#	16922
#	33122
#	45005
#	59480
#	72282
#	87630
#	102282
#
# Disc length: 1518 seconds
#
# Revision: 0
# Processed by: cddbd v1.5.2PL0 Copyright (c) Steve Scherf et al.
# Submitted via: CDex 1.70beta3
#
DISCID=5c05ec08
DTITLE=Billie Holiday - An Evening With Billie Holiday
DYEAR=1952
DGENRE=Jazz
TTITLE0=Stormy Weather
TTITLE1=Lover Come Back To Me
TTITLE2=My Man
TTITLE3=He's Funny That Way
TTITLE4=Yesterdays
TTITLE5=Tenderly
TTITLE6=I Can't Face The Music
TTITLE7=Remember
EXTD=YEAR: 1952
EXTT0=
EXTT1=
EXTT2=
EXTT3=
EXTT4=
EXTT5=
EXTT6=
EXTT7=
PLAYORDER=
